<?xml version="1.0" encoding="UTF-8" standalone="no"?>
<!DOCTYPE svg PUBLIC "-//W3C//DTD SVG 1.1//EN"
 "http://www.w3.org/Graphics/SVG/1.1/DTD/svg11.dtd">
<!-- Generated by graphviz version 2.43.0 (0)
 -->
<!-- Title: bvh Pages: 1 -->
<svg width="969pt" height="760pt"
 viewBox="0.00 0.00 969.00 760.00" xmlns="http://www.w3.org/2000/svg" xmlns:xlink="http://www.w3.org/1999/xlink">
<g id="graph0" class="graph" transform="scale(1 1) rotate(0) translate(4 756)">
<title>bvh</title>
<polygon fill="white" stroke="transparent" points="-4,4 -4,-756 965,-756 965,4 -4,4"/>
<!-- NODE0 -->
<g id="node1" class="node">
<title>NODE0</title>
<path fill="lightgrey" stroke="transparent" d="M646.5,-752C646.5,-752 530.5,-752 530.5,-752 524.5,-752 518.5,-746 518.5,-740 518.5,-740 518.5,-696 518.5,-696 518.5,-690 524.5,-684 530.5,-684 530.5,-684 646.5,-684 646.5,-684 652.5,-684 658.5,-690 658.5,-696 658.5,-696 658.5,-740 658.5,-740 658.5,-746 652.5,-752 646.5,-752"/>
<text text-anchor="middle" x="588.5" y="-736.8" font-family="Times,serif" font-size="14.00" fill="#101010">[1.00,1.00,0.00]</text>
<text text-anchor="middle" x="588.5" y="-721.8" font-family="Times,serif" font-size="14.00" fill="#101010">[10.00,7.00,1.00]</text>
<text text-anchor="middle" x="588.5" y="-706.8" font-family="Times,serif" font-size="14.00" fill="#101010">SA: 138.00</text>
<text text-anchor="middle" x="588.5" y="-691.8" font-family="Times,serif" font-size="14.00" fill="#101010">VOL: 54.00</text>
</g>
<!-- NODE1 -->
<g id="node2" class="node">
<title>NODE1</title>
<path fill="lightgrey" stroke="transparent" d="M565,-648C565,-648 458,-648 458,-648 452,-648 446,-642 446,-636 446,-636 446,-592 446,-592 446,-586 452,-580 458,-580 458,-580 565,-580 565,-580 571,-580 577,-586 577,-592 577,-592 577,-636 577,-636 577,-642 571,-648 565,-648"/>
<text text-anchor="middle" x="511.5" y="-632.8" font-family="Times,serif" font-size="14.00" fill="#101010">[4.00,1.00,0.00]</text>
<text text-anchor="middle" x="511.5" y="-617.8" font-family="Times,serif" font-size="14.00" fill="#101010">[7.00,7.00,1.00]</text>
<text text-anchor="middle" x="511.5" y="-602.8" font-family="Times,serif" font-size="14.00" fill="#101010">SA: 54.00</text>
<text text-anchor="middle" x="511.5" y="-587.8" font-family="Times,serif" font-size="14.00" fill="#101010">VOL: 18.00</text>
</g>
<!-- NODE0&#45;&gt;NODE1 -->
<g id="edge1" class="edge">
<title>NODE0&#45;&gt;NODE1</title>
<path fill="none" stroke="black" d="M563.5,-683.88C556.91,-675.15 549.72,-665.62 542.84,-656.51"/>
<polygon fill="black" stroke="black" points="545.46,-654.17 536.64,-648.3 539.87,-658.39 545.46,-654.17"/>
</g>
<!-- NODE2 -->
<g id="node3" class="node">
<title>NODE2</title>
<path fill="lightgrey" stroke="transparent" d="M723.5,-648C723.5,-648 607.5,-648 607.5,-648 601.5,-648 595.5,-642 595.5,-636 595.5,-636 595.5,-592 595.5,-592 595.5,-586 601.5,-580 607.5,-580 607.5,-580 723.5,-580 723.5,-580 729.5,-580 735.5,-586 735.5,-592 735.5,-592 735.5,-636 735.5,-636 735.5,-642 729.5,-648 723.5,-648"/>
<text text-anchor="middle" x="665.5" y="-632.8" font-family="Times,serif" font-size="14.00" fill="#101010">[1.00,3.00,0.00]</text>
<text text-anchor="middle" x="665.5" y="-617.8" font-family="Times,serif" font-size="14.00" fill="#101010">[10.00,5.00,1.00]</text>
<text text-anchor="middle" x="665.5" y="-602.8" font-family="Times,serif" font-size="14.00" fill="#101010">SA: 58.00</text>
<text text-anchor="middle" x="665.5" y="-587.8" font-family="Times,serif" font-size="14.00" fill="#101010">VOL: 18.00</text>
</g>
<!-- NODE0&#45;&gt;NODE2 -->
<g id="edge2" class="edge">
<title>NODE0&#45;&gt;NODE2</title>
<path fill="none" stroke="black" d="M613.5,-683.88C620.09,-675.15 627.28,-665.62 634.16,-656.51"/>
<polygon fill="black" stroke="black" points="637.13,-658.39 640.36,-648.3 631.54,-654.17 637.13,-658.39"/>
</g>
<!-- NODE3 -->
<g id="node4" class="node">
<title>NODE3</title>
<path fill="lightgrey" stroke="transparent" d="M418,-536.5C418,-536.5 311,-536.5 311,-536.5 305,-536.5 299,-530.5 299,-524.5 299,-524.5 299,-480.5 299,-480.5 299,-474.5 305,-468.5 311,-468.5 311,-468.5 418,-468.5 418,-468.5 424,-468.5 430,-474.5 430,-480.5 430,-480.5 430,-524.5 430,-524.5 430,-530.5 424,-536.5 418,-536.5"/>
<text text-anchor="middle" x="364.5" y="-521.3" font-family="Times,serif" font-size="14.00" fill="#101010">[6.00,1.00,0.00]</text>
<text text-anchor="middle" x="364.5" y="-506.3" font-family="Times,serif" font-size="14.00" fill="#101010">[7.00,7.00,1.00]</text>
<text text-anchor="middle" x="364.5" y="-491.3" font-family="Times,serif" font-size="14.00" fill="#101010">SA: 26.00</text>
<text text-anchor="middle" x="364.5" y="-476.3" font-family="Times,serif" font-size="14.00" fill="#101010">VOL: 6.00</text>
</g>
<!-- NODE1&#45;&gt;NODE3 -->
<g id="edge3" class="edge">
<title>NODE1&#45;&gt;NODE3</title>
<path fill="none" stroke="black" d="M467,-579.85C451.31,-568.16 433.52,-554.91 417.22,-542.77"/>
<polygon fill="black" stroke="black" points="418.96,-539.71 408.85,-536.54 414.78,-545.32 418.96,-539.71"/>
</g>
<!-- NODE4 -->
<g id="node5" class="node">
<title>NODE4</title>
<path fill="lightgrey" stroke="transparent" d="M567,-544C567,-544 460,-544 460,-544 454,-544 448,-538 448,-532 448,-532 448,-473 448,-473 448,-467 454,-461 460,-461 460,-461 567,-461 567,-461 573,-461 579,-467 579,-473 579,-473 579,-532 579,-532 579,-538 573,-544 567,-544"/>
<text text-anchor="middle" x="513.5" y="-528.8" font-family="Times,serif" font-size="14.00" fill="#101010">[4.00,1.00,0.00]</text>
<text text-anchor="middle" x="513.5" y="-513.8" font-family="Times,serif" font-size="14.00" fill="#101010">[6.00,7.00,1.00]</text>
<text text-anchor="middle" x="513.5" y="-498.8" font-family="Times,serif" font-size="14.00" fill="#101010">SA: 40.00</text>
<text text-anchor="middle" x="513.5" y="-483.8" font-family="Times,serif" font-size="14.00" fill="#101010">VOL: 12.00</text>
<text text-anchor="middle" x="513.5" y="-468.8" font-family="Times,serif" font-size="14.00" fill="#101010">1 objects</text>
</g>
<!-- NODE1&#45;&gt;NODE4 -->
<g id="edge4" class="edge">
<title>NODE1&#45;&gt;NODE4</title>
<path fill="none" stroke="black" d="M512.11,-579.85C512.25,-571.8 512.41,-563 512.57,-554.34"/>
<polygon fill="black" stroke="black" points="516.07,-554.34 512.76,-544.28 509.07,-554.21 516.07,-554.34"/>
</g>
<!-- NODE5 -->
<g id="node6" class="node">
<title>NODE5</title>
<path fill="lightgrey" stroke="transparent" d="M717,-544C717,-544 610,-544 610,-544 604,-544 598,-538 598,-532 598,-532 598,-473 598,-473 598,-467 604,-461 610,-461 610,-461 717,-461 717,-461 723,-461 729,-467 729,-473 729,-473 729,-532 729,-532 729,-538 723,-544 717,-544"/>
<text text-anchor="middle" x="663.5" y="-528.8" font-family="Times,serif" font-size="14.00" fill="#101010">[1.00,3.00,0.00]</text>
<text text-anchor="middle" x="663.5" y="-513.8" font-family="Times,serif" font-size="14.00" fill="#101010">[3.00,5.00,1.00]</text>
<text text-anchor="middle" x="663.5" y="-498.8" font-family="Times,serif" font-size="14.00" fill="#101010">SA: 16.00</text>
<text text-anchor="middle" x="663.5" y="-483.8" font-family="Times,serif" font-size="14.00" fill="#101010">VOL: 4.00</text>
<text text-anchor="middle" x="663.5" y="-468.8" font-family="Times,serif" font-size="14.00" fill="#101010">1 objects</text>
</g>
<!-- NODE2&#45;&gt;NODE5 -->
<g id="edge5" class="edge">
<title>NODE2&#45;&gt;NODE5</title>
<path fill="none" stroke="black" d="M664.89,-579.85C664.75,-571.8 664.59,-563 664.43,-554.34"/>
<polygon fill="black" stroke="black" points="667.93,-554.21 664.24,-544.28 660.93,-554.34 667.93,-554.21"/>
</g>
<!-- NODE6 -->
<g id="node7" class="node">
<title>NODE6</title>
<path fill="lightgrey" stroke="transparent" d="M875.5,-536.5C875.5,-536.5 759.5,-536.5 759.5,-536.5 753.5,-536.5 747.5,-530.5 747.5,-524.5 747.5,-524.5 747.5,-480.5 747.5,-480.5 747.5,-474.5 753.5,-468.5 759.5,-468.5 759.5,-468.5 875.5,-468.5 875.5,-468.5 881.5,-468.5 887.5,-474.5 887.5,-480.5 887.5,-480.5 887.5,-524.5 887.5,-524.5 887.5,-530.5 881.5,-536.5 875.5,-536.5"/>
<text text-anchor="middle" x="817.5" y="-521.3" font-family="Times,serif" font-size="14.00" fill="#101010">[8.00,3.00,0.00]</text>
<text text-anchor="middle" x="817.5" y="-506.3" font-family="Times,serif" font-size="14.00" fill="#101010">[10.00,5.00,1.00]</text>
<text text-anchor="middle" x="817.5" y="-491.3" font-family="Times,serif" font-size="14.00" fill="#101010">SA: 16.00</text>
<text text-anchor="middle" x="817.5" y="-476.3" font-family="Times,serif" font-size="14.00" fill="#101010">VOL: 4.00</text>
</g>
<!-- NODE2&#45;&gt;NODE6 -->
<g id="edge6" class="edge">
<title>NODE2&#45;&gt;NODE6</title>
<path fill="none" stroke="black" d="M711.52,-579.85C727.89,-568.06 746.47,-554.67 763.45,-542.44"/>
<polygon fill="black" stroke="black" points="765.57,-545.22 771.64,-536.54 761.48,-539.54 765.57,-545.22"/>
</g>
<!-- NODE7 -->
<g id="node8" class="node">
<title>NODE7</title>
<path fill="lightgrey" stroke="transparent" d="M416,-417.5C416,-417.5 309,-417.5 309,-417.5 303,-417.5 297,-411.5 297,-405.5 297,-405.5 297,-361.5 297,-361.5 297,-355.5 303,-349.5 309,-349.5 309,-349.5 416,-349.5 416,-349.5 422,-349.5 428,-355.5 428,-361.5 428,-361.5 428,-405.5 428,-405.5 428,-411.5 422,-417.5 416,-417.5"/>
<text text-anchor="middle" x="362.5" y="-402.3" font-family="Times,serif" font-size="14.00" fill="#101010">[6.00,2.00,0.00]</text>
<text text-anchor="middle" x="362.5" y="-387.3" font-family="Times,serif" font-size="14.00" fill="#101010">[7.00,7.00,1.00]</text>
<text text-anchor="middle" x="362.5" y="-372.3" font-family="Times,serif" font-size="14.00" fill="#101010">SA: 22.00</text>
<text text-anchor="middle" x="362.5" y="-357.3" font-family="Times,serif" font-size="14.00" fill="#101010">VOL: 5.00</text>
</g>
<!-- NODE3&#45;&gt;NODE7 -->
<g id="edge7" class="edge">
<title>NODE3&#45;&gt;NODE7</title>
<path fill="none" stroke="black" d="M363.93,-468.29C363.72,-455.81 363.47,-441.44 363.25,-428.16"/>
<polygon fill="black" stroke="black" points="366.74,-427.74 363.07,-417.8 359.74,-427.86 366.74,-427.74"/>
</g>
<!-- NODE8 -->
<g id="node9" class="node">
<title>NODE8</title>
<path fill="lightgrey" stroke="transparent" d="M565,-425C565,-425 458,-425 458,-425 452,-425 446,-419 446,-413 446,-413 446,-354 446,-354 446,-348 452,-342 458,-342 458,-342 565,-342 565,-342 571,-342 577,-348 577,-354 577,-354 577,-413 577,-413 577,-419 571,-425 565,-425"/>
<text text-anchor="middle" x="511.5" y="-409.8" font-family="Times,serif" font-size="14.00" fill="#101010">[6.00,1.00,0.00]</text>
<text text-anchor="middle" x="511.5" y="-394.8" font-family="Times,serif" font-size="14.00" fill="#101010">[7.00,2.00,1.00]</text>
<text text-anchor="middle" x="511.5" y="-379.8" font-family="Times,serif" font-size="14.00" fill="#101010">SA: 6.00</text>
<text text-anchor="middle" x="511.5" y="-364.8" font-family="Times,serif" font-size="14.00" fill="#101010">VOL: 1.00</text>
<text text-anchor="middle" x="511.5" y="-349.8" font-family="Times,serif" font-size="14.00" fill="#101010">1 objects</text>
</g>
<!-- NODE3&#45;&gt;NODE8 -->
<g id="edge8" class="edge">
<title>NODE3&#45;&gt;NODE8</title>
<path fill="none" stroke="black" d="M406.23,-468.29C420.62,-456.84 437.01,-443.79 452.51,-431.45"/>
<polygon fill="black" stroke="black" points="454.87,-434.05 460.52,-425.08 450.51,-428.57 454.87,-434.05"/>
</g>
<!-- NODE9 -->
<g id="node10" class="node">
<title>NODE9</title>
<path fill="lightgrey" stroke="transparent" d="M799.5,-425C799.5,-425 683.5,-425 683.5,-425 677.5,-425 671.5,-419 671.5,-413 671.5,-413 671.5,-354 671.5,-354 671.5,-348 677.5,-342 683.5,-342 683.5,-342 799.5,-342 799.5,-342 805.5,-342 811.5,-348 811.5,-354 811.5,-354 811.5,-413 811.5,-413 811.5,-419 805.5,-425 799.5,-425"/>
<text text-anchor="middle" x="741.5" y="-409.8" font-family="Times,serif" font-size="14.00" fill="#101010">[9.00,3.00,0.00]</text>
<text text-anchor="middle" x="741.5" y="-394.8" font-family="Times,serif" font-size="14.00" fill="#101010">[10.00,5.00,1.00]</text>
<text text-anchor="middle" x="741.5" y="-379.8" font-family="Times,serif" font-size="14.00" fill="#101010">SA: 10.00</text>
<text text-anchor="middle" x="741.5" y="-364.8" font-family="Times,serif" font-size="14.00" fill="#101010">VOL: 2.00</text>
<text text-anchor="middle" x="741.5" y="-349.8" font-family="Times,serif" font-size="14.00" fill="#101010">1 objects</text>
</g>
<!-- NODE6&#45;&gt;NODE9 -->
<g id="edge9" class="edge">
<title>NODE6&#45;&gt;NODE9</title>
<path fill="none" stroke="black" d="M795.92,-468.29C789,-457.63 781.18,-445.58 773.66,-434.01"/>
<polygon fill="black" stroke="black" points="776.38,-431.77 768,-425.29 770.51,-435.59 776.38,-431.77"/>
</g>
<!-- NODE10 -->
<g id="node11" class="node">
<title>NODE10</title>
<path fill="lightgrey" stroke="transparent" d="M949,-425C949,-425 842,-425 842,-425 836,-425 830,-419 830,-413 830,-413 830,-354 830,-354 830,-348 836,-342 842,-342 842,-342 949,-342 949,-342 955,-342 961,-348 961,-354 961,-354 961,-413 961,-413 961,-419 955,-425 949,-425"/>
<text text-anchor="middle" x="895.5" y="-409.8" font-family="Times,serif" font-size="14.00" fill="#101010">[8.00,3.00,0.00]</text>
<text text-anchor="middle" x="895.5" y="-394.8" font-family="Times,serif" font-size="14.00" fill="#101010">[9.00,5.00,1.00]</text>
<text text-anchor="middle" x="895.5" y="-379.8" font-family="Times,serif" font-size="14.00" fill="#101010">SA: 10.00</text>
<text text-anchor="middle" x="895.5" y="-364.8" font-family="Times,serif" font-size="14.00" fill="#101010">VOL: 2.00</text>
<text text-anchor="middle" x="895.5" y="-349.8" font-family="Times,serif" font-size="14.00" fill="#101010">1 objects</text>
</g>
<!-- NODE6&#45;&gt;NODE10 -->
<g id="edge10" class="edge">
<title>NODE6&#45;&gt;NODE10</title>
<path fill="none" stroke="black" d="M839.64,-468.29C846.82,-457.52 854.94,-445.34 862.72,-433.67"/>
<polygon fill="black" stroke="black" points="865.67,-435.55 868.3,-425.29 859.85,-431.67 865.67,-435.55"/>
</g>
<!-- NODE11 -->
<g id="node12" class="node">
<title>NODE11</title>
<path fill="lightgrey" stroke="transparent" d="M342,-298.5C342,-298.5 235,-298.5 235,-298.5 229,-298.5 223,-292.5 223,-286.5 223,-286.5 223,-242.5 223,-242.5 223,-236.5 229,-230.5 235,-230.5 235,-230.5 342,-230.5 342,-230.5 348,-230.5 354,-236.5 354,-242.5 354,-242.5 354,-286.5 354,-286.5 354,-292.5 348,-298.5 342,-298.5"/>
<text text-anchor="middle" x="288.5" y="-283.3" font-family="Times,serif" font-size="14.00" fill="#101010">[6.00,2.00,0.00]</text>
<text text-anchor="middle" x="288.5" y="-268.3" font-family="Times,serif" font-size="14.00" fill="#101010">[7.00,6.00,1.00]</text>
<text text-anchor="middle" x="288.5" y="-253.3" font-family="Times,serif" font-size="14.00" fill="#101010">SA: 18.00</text>
<text text-anchor="middle" x="288.5" y="-238.3" font-family="Times,serif" font-size="14.00" fill="#101010">VOL: 4.00</text>
</g>
<!-- NODE7&#45;&gt;NODE11 -->
<g id="edge11" class="edge">
<title>NODE7&#45;&gt;NODE11</title>
<path fill="none" stroke="black" d="M341.49,-349.29C333.29,-336.32 323.79,-321.3 315.12,-307.58"/>
<polygon fill="black" stroke="black" points="317.86,-305.38 309.56,-298.8 311.95,-309.12 317.86,-305.38"/>
</g>
<!-- NODE12 -->
<g id="node13" class="node">
<title>NODE12</title>
<path fill="lightgrey" stroke="transparent" d="M491,-306C491,-306 384,-306 384,-306 378,-306 372,-300 372,-294 372,-294 372,-235 372,-235 372,-229 378,-223 384,-223 384,-223 491,-223 491,-223 497,-223 503,-229 503,-235 503,-235 503,-294 503,-294 503,-300 497,-306 491,-306"/>
<text text-anchor="middle" x="437.5" y="-290.8" font-family="Times,serif" font-size="14.00" fill="#101010">[6.00,6.00,0.00]</text>
<text text-anchor="middle" x="437.5" y="-275.8" font-family="Times,serif" font-size="14.00" fill="#101010">[7.00,7.00,1.00]</text>
<text text-anchor="middle" x="437.5" y="-260.8" font-family="Times,serif" font-size="14.00" fill="#101010">SA: 6.00</text>
<text text-anchor="middle" x="437.5" y="-245.8" font-family="Times,serif" font-size="14.00" fill="#101010">VOL: 1.00</text>
<text text-anchor="middle" x="437.5" y="-230.8" font-family="Times,serif" font-size="14.00" fill="#101010">1 objects</text>
</g>
<!-- NODE7&#45;&gt;NODE12 -->
<g id="edge12" class="edge">
<title>NODE7&#45;&gt;NODE12</title>
<path fill="none" stroke="black" d="M383.79,-349.29C390.62,-338.63 398.35,-326.58 405.76,-315.01"/>
<polygon fill="black" stroke="black" points="408.9,-316.6 411.35,-306.29 403.01,-312.82 408.9,-316.6"/>
</g>
<!-- NODE13 -->
<g id="node14" class="node">
<title>NODE13</title>
<path fill="lightgrey" stroke="transparent" d="M268,-187C268,-187 161,-187 161,-187 155,-187 149,-181 149,-175 149,-175 149,-131 149,-131 149,-125 155,-119 161,-119 161,-119 268,-119 268,-119 274,-119 280,-125 280,-131 280,-131 280,-175 280,-175 280,-181 274,-187 268,-187"/>
<text text-anchor="middle" x="214.5" y="-171.8" font-family="Times,serif" font-size="14.00" fill="#101010">[6.00,4.00,0.00]</text>
<text text-anchor="middle" x="214.5" y="-156.8" font-family="Times,serif" font-size="14.00" fill="#101010">[7.00,6.00,1.00]</text>
<text text-anchor="middle" x="214.5" y="-141.8" font-family="Times,serif" font-size="14.00" fill="#101010">SA: 10.00</text>
<text text-anchor="middle" x="214.5" y="-126.8" font-family="Times,serif" font-size="14.00" fill="#101010">VOL: 2.00</text>
</g>
<!-- NODE11&#45;&gt;NODE13 -->
<g id="edge13" class="edge">
<title>NODE11&#45;&gt;NODE13</title>
<path fill="none" stroke="black" d="M266.1,-230.35C258.71,-219.41 250.39,-207.11 242.63,-195.63"/>
<polygon fill="black" stroke="black" points="245.33,-193.36 236.83,-187.04 239.53,-197.28 245.33,-193.36"/>
</g>
<!-- NODE14 -->
<g id="node15" class="node">
<title>NODE14</title>
<path fill="lightgrey" stroke="transparent" d="M417,-187C417,-187 310,-187 310,-187 304,-187 298,-181 298,-175 298,-175 298,-131 298,-131 298,-125 304,-119 310,-119 310,-119 417,-119 417,-119 423,-119 429,-125 429,-131 429,-131 429,-175 429,-175 429,-181 423,-187 417,-187"/>
<text text-anchor="middle" x="363.5" y="-171.8" font-family="Times,serif" font-size="14.00" fill="#101010">[6.00,2.00,0.00]</text>
<text text-anchor="middle" x="363.5" y="-156.8" font-family="Times,serif" font-size="14.00" fill="#101010">[7.00,4.00,1.00]</text>
<text text-anchor="middle" x="363.5" y="-141.8" font-family="Times,serif" font-size="14.00" fill="#101010">SA: 10.00</text>
<text text-anchor="middle" x="363.5" y="-126.8" font-family="Times,serif" font-size="14.00" fill="#101010">VOL: 2.00</text>
</g>
<!-- NODE11&#45;&gt;NODE14 -->
<g id="edge14" class="edge">
<title>NODE11&#45;&gt;NODE14</title>
<path fill="none" stroke="black" d="M311.21,-230.35C318.7,-219.41 327.12,-207.11 334.99,-195.63"/>
<polygon fill="black" stroke="black" points="338.11,-197.27 340.87,-187.04 332.33,-193.31 338.11,-197.27"/>
</g>
<!-- NODE15 -->
<g id="node16" class="node">
<title>NODE15</title>
<path fill="lightgrey" stroke="transparent" d="M119,-83C119,-83 12,-83 12,-83 6,-83 0,-77 0,-71 0,-71 0,-12 0,-12 0,-6 6,0 12,0 12,0 119,0 119,0 125,0 131,-6 131,-12 131,-12 131,-71 131,-71 131,-77 125,-83 119,-83"/>
<text text-anchor="middle" x="65.5" y="-67.8" font-family="Times,serif" font-size="14.00" fill="#101010">[6.00,4.00,0.00]</text>
<text text-anchor="middle" x="65.5" y="-52.8" font-family="Times,serif" font-size="14.00" fill="#101010">[7.00,5.00,1.00]</text>
<text text-anchor="middle" x="65.5" y="-37.8" font-family="Times,serif" font-size="14.00" fill="#101010">SA: 6.00</text>
<text text-anchor="middle" x="65.5" y="-22.8" font-family="Times,serif" font-size="14.00" fill="#101010">VOL: 1.00</text>
<text text-anchor="middle" x="65.5" y="-7.8" font-family="Times,serif" font-size="14.00" fill="#101010">1 objects</text>
</g>
<!-- NODE13&#45;&gt;NODE15 -->
<g id="edge15" class="edge">
<title>NODE13&#45;&gt;NODE15</title>
<path fill="none" stroke="black" d="M169.39,-118.85C156.69,-109.52 142.64,-99.19 129.08,-89.23"/>
<polygon fill="black" stroke="black" points="130.85,-86.18 120.72,-83.08 126.7,-91.82 130.85,-86.18"/>
</g>
<!-- NODE16 -->
<g id="node17" class="node">
<title>NODE16</title>
<path fill="lightgrey" stroke="transparent" d="M268,-83C268,-83 161,-83 161,-83 155,-83 149,-77 149,-71 149,-71 149,-12 149,-12 149,-6 155,0 161,0 161,0 268,0 268,0 274,0 280,-6 280,-12 280,-12 280,-71 280,-71 280,-77 274,-83 268,-83"/>
<text text-anchor="middle" x="214.5" y="-67.8" font-family="Times,serif" font-size="14.00" fill="#101010">[6.00,5.00,0.00]</text>
<text text-anchor="middle" x="214.5" y="-52.8" font-family="Times,serif" font-size="14.00" fill="#101010">[7.00,6.00,1.00]</text>
<text text-anchor="middle" x="214.5" y="-37.8" font-family="Times,serif" font-size="14.00" fill="#101010">SA: 6.00</text>
<text text-anchor="middle" x="214.5" y="-22.8" font-family="Times,serif" font-size="14.00" fill="#101010">VOL: 1.00</text>
<text text-anchor="middle" x="214.5" y="-7.8" font-family="Times,serif" font-size="14.00" fill="#101010">1 objects</text>
</g>
<!-- NODE13&#45;&gt;NODE16 -->
<g id="edge16" class="edge">
<title>NODE13&#45;&gt;NODE16</title>
<path fill="none" stroke="black" d="M214.5,-118.85C214.5,-110.8 214.5,-102 214.5,-93.34"/>
<polygon fill="black" stroke="black" points="218,-93.28 214.5,-83.28 211,-93.28 218,-93.28"/>
</g>
<!-- NODE17 -->
<g id="node18" class="node">
<title>NODE17</title>
<path fill="lightgrey" stroke="transparent" d="M417,-83C417,-83 310,-83 310,-83 304,-83 298,-77 298,-71 298,-71 298,-12 298,-12 298,-6 304,0 310,0 310,0 417,0 417,0 423,0 429,-6 429,-12 429,-12 429,-71 429,-71 429,-77 423,-83 417,-83"/>
<text text-anchor="middle" x="363.5" y="-67.8" font-family="Times,serif" font-size="14.00" fill="#101010">[6.00,2.00,0.00]</text>
<text text-anchor="middle" x="363.5" y="-52.8" font-family="Times,serif" font-size="14.00" fill="#101010">[7.00,3.00,1.00]</text>
<text text-anchor="middle" x="363.5" y="-37.8" font-family="Times,serif" font-size="14.00" fill="#101010">SA: 6.00</text>
<text text-anchor="middle" x="363.5" y="-22.8" font-family="Times,serif" font-size="14.00" fill="#101010">VOL: 1.00</text>
<text text-anchor="middle" x="363.5" y="-7.8" font-family="Times,serif" font-size="14.00" fill="#101010">1 objects</text>
</g>
<!-- NODE14&#45;&gt;NODE17 -->
<g id="edge17" class="edge">
<title>NODE14&#45;&gt;NODE17</title>
<path fill="none" stroke="black" d="M363.5,-118.85C363.5,-110.8 363.5,-102 363.5,-93.34"/>
<polygon fill="black" stroke="black" points="367,-93.28 363.5,-83.28 360,-93.28 367,-93.28"/>
</g>
<!-- NODE18 -->
<g id="node19" class="node">
<title>NODE18</title>
<path fill="lightgrey" stroke="transparent" d="M566,-83C566,-83 459,-83 459,-83 453,-83 447,-77 447,-71 447,-71 447,-12 447,-12 447,-6 453,0 459,0 459,0 566,0 566,0 572,0 578,-6 578,-12 578,-12 578,-71 578,-71 578,-77 572,-83 566,-83"/>
<text text-anchor="middle" x="512.5" y="-67.8" font-family="Times,serif" font-size="14.00" fill="#101010">[6.00,3.00,0.00]</text>
<text text-anchor="middle" x="512.5" y="-52.8" font-family="Times,serif" font-size="14.00" fill="#101010">[7.00,4.00,1.00]</text>
<text text-anchor="middle" x="512.5" y="-37.8" font-family="Times,serif" font-size="14.00" fill="#101010">SA: 6.00</text>
<text text-anchor="middle" x="512.5" y="-22.8" font-family="Times,serif" font-size="14.00" fill="#101010">VOL: 1.00</text>
<text text-anchor="middle" x="512.5" y="-7.8" font-family="Times,serif" font-size="14.00" fill="#101010">1 objects</text>
</g>
<!-- NODE14&#45;&gt;NODE18 -->
<g id="edge18" class="edge">
<title>NODE14&#45;&gt;NODE18</title>
<path fill="none" stroke="black" d="M408.61,-118.85C421.31,-109.52 435.36,-99.19 448.92,-89.23"/>
<polygon fill="black" stroke="black" points="451.3,-91.82 457.28,-83.08 447.15,-86.18 451.3,-91.82"/>
</g>
</g>
</svg>
