<?xml version="1.0" encoding="UTF-8" standalone="no"?>
<!DOCTYPE svg PUBLIC "-//W3C//DTD SVG 1.1//EN"
 "http://www.w3.org/Graphics/SVG/1.1/DTD/svg11.dtd">
<!-- Generated by graphviz version 2.43.0 (0)
 -->
<!-- Title: bvh Pages: 1 -->
<svg width="894pt" height="1013pt"
 viewBox="0.00 0.00 893.50 1013.00" xmlns="http://www.w3.org/2000/svg" xmlns:xlink="http://www.w3.org/1999/xlink">
<g id="graph0" class="graph" transform="scale(1 1) rotate(0) translate(4 1009)">
<title>bvh</title>
<polygon fill="white" stroke="transparent" points="-4,4 -4,-1009 889.5,-1009 889.5,4 -4,4"/>
<!-- NODE0 -->
<g id="node1" class="node">
<title>NODE0</title>
<path fill="lightgrey" stroke="transparent" d="M720.5,-1005C720.5,-1005 604.5,-1005 604.5,-1005 598.5,-1005 592.5,-999 592.5,-993 592.5,-993 592.5,-949 592.5,-949 592.5,-943 598.5,-937 604.5,-937 604.5,-937 720.5,-937 720.5,-937 726.5,-937 732.5,-943 732.5,-949 732.5,-949 732.5,-993 732.5,-993 732.5,-999 726.5,-1005 720.5,-1005"/>
<text text-anchor="middle" x="662.5" y="-989.8" font-family="Times,serif" font-size="14.00" fill="#101010">[1.00,1.00,0.00]</text>
<text text-anchor="middle" x="662.5" y="-974.8" font-family="Times,serif" font-size="14.00" fill="#101010">[10.00,7.00,1.00]</text>
<text text-anchor="middle" x="662.5" y="-959.8" font-family="Times,serif" font-size="14.00" fill="#101010">SA: 138.00</text>
<text text-anchor="middle" x="662.5" y="-944.8" font-family="Times,serif" font-size="14.00" fill="#101010">VOL: 54.00</text>
</g>
<!-- NODE1 -->
<g id="node2" class="node">
<title>NODE1</title>
<path fill="lightgrey" stroke="transparent" d="M643.5,-893.5C643.5,-893.5 527.5,-893.5 527.5,-893.5 521.5,-893.5 515.5,-887.5 515.5,-881.5 515.5,-881.5 515.5,-837.5 515.5,-837.5 515.5,-831.5 521.5,-825.5 527.5,-825.5 527.5,-825.5 643.5,-825.5 643.5,-825.5 649.5,-825.5 655.5,-831.5 655.5,-837.5 655.5,-837.5 655.5,-881.5 655.5,-881.5 655.5,-887.5 649.5,-893.5 643.5,-893.5"/>
<text text-anchor="middle" x="585.5" y="-878.3" font-family="Times,serif" font-size="14.00" fill="#101010">[4.00,1.00,0.00]</text>
<text text-anchor="middle" x="585.5" y="-863.3" font-family="Times,serif" font-size="14.00" fill="#101010">[10.00,7.00,1.00]</text>
<text text-anchor="middle" x="585.5" y="-848.3" font-family="Times,serif" font-size="14.00" fill="#101010">SA: 96.00</text>
<text text-anchor="middle" x="585.5" y="-833.3" font-family="Times,serif" font-size="14.00" fill="#101010">VOL: 36.00</text>
</g>
<!-- NODE0&#45;&gt;NODE1 -->
<g id="edge1" class="edge">
<title>NODE0&#45;&gt;NODE1</title>
<path fill="none" stroke="black" d="M639.19,-936.85C631.42,-925.81 622.68,-913.37 614.53,-901.79"/>
<polygon fill="black" stroke="black" points="617.35,-899.7 608.73,-893.54 611.62,-903.73 617.35,-899.7"/>
</g>
<!-- NODE2 -->
<g id="node3" class="node">
<title>NODE2</title>
<path fill="lightgrey" stroke="transparent" d="M793,-901C793,-901 686,-901 686,-901 680,-901 674,-895 674,-889 674,-889 674,-830 674,-830 674,-824 680,-818 686,-818 686,-818 793,-818 793,-818 799,-818 805,-824 805,-830 805,-830 805,-889 805,-889 805,-895 799,-901 793,-901"/>
<text text-anchor="middle" x="739.5" y="-885.8" font-family="Times,serif" font-size="14.00" fill="#101010">[1.00,3.00,0.00]</text>
<text text-anchor="middle" x="739.5" y="-870.8" font-family="Times,serif" font-size="14.00" fill="#101010">[3.00,5.00,1.00]</text>
<text text-anchor="middle" x="739.5" y="-855.8" font-family="Times,serif" font-size="14.00" fill="#101010">SA: 16.00</text>
<text text-anchor="middle" x="739.5" y="-840.8" font-family="Times,serif" font-size="14.00" fill="#101010">VOL: 4.00</text>
<text text-anchor="middle" x="739.5" y="-825.8" font-family="Times,serif" font-size="14.00" fill="#101010">1 objects</text>
</g>
<!-- NODE0&#45;&gt;NODE2 -->
<g id="edge2" class="edge">
<title>NODE0&#45;&gt;NODE2</title>
<path fill="none" stroke="black" d="M685.81,-936.85C691.84,-928.27 698.47,-918.85 704.94,-909.64"/>
<polygon fill="black" stroke="black" points="707.94,-911.47 710.83,-901.28 702.21,-907.44 707.94,-911.47"/>
</g>
<!-- NODE3 -->
<g id="node4" class="node">
<title>NODE3</title>
<path fill="lightgrey" stroke="transparent" d="M562,-782C562,-782 455,-782 455,-782 449,-782 443,-776 443,-770 443,-770 443,-726 443,-726 443,-720 449,-714 455,-714 455,-714 562,-714 562,-714 568,-714 574,-720 574,-726 574,-726 574,-770 574,-770 574,-776 568,-782 562,-782"/>
<text text-anchor="middle" x="508.5" y="-766.8" font-family="Times,serif" font-size="14.00" fill="#101010">[4.00,1.00,0.00]</text>
<text text-anchor="middle" x="508.5" y="-751.8" font-family="Times,serif" font-size="14.00" fill="#101010">[7.00,7.00,1.00]</text>
<text text-anchor="middle" x="508.5" y="-736.8" font-family="Times,serif" font-size="14.00" fill="#101010">SA: 54.00</text>
<text text-anchor="middle" x="508.5" y="-721.8" font-family="Times,serif" font-size="14.00" fill="#101010">VOL: 18.00</text>
</g>
<!-- NODE1&#45;&gt;NODE3 -->
<g id="edge3" class="edge">
<title>NODE1&#45;&gt;NODE3</title>
<path fill="none" stroke="black" d="M562.19,-825.35C554.42,-814.31 545.68,-801.87 537.53,-790.29"/>
<polygon fill="black" stroke="black" points="540.35,-788.2 531.73,-782.04 534.62,-792.23 540.35,-788.2"/>
</g>
<!-- NODE4 -->
<g id="node5" class="node">
<title>NODE4</title>
<path fill="lightgrey" stroke="transparent" d="M720.5,-782C720.5,-782 604.5,-782 604.5,-782 598.5,-782 592.5,-776 592.5,-770 592.5,-770 592.5,-726 592.5,-726 592.5,-720 598.5,-714 604.5,-714 604.5,-714 720.5,-714 720.5,-714 726.5,-714 732.5,-720 732.5,-726 732.5,-726 732.5,-770 732.5,-770 732.5,-776 726.5,-782 720.5,-782"/>
<text text-anchor="middle" x="662.5" y="-766.8" font-family="Times,serif" font-size="14.00" fill="#101010">[8.00,3.00,0.00]</text>
<text text-anchor="middle" x="662.5" y="-751.8" font-family="Times,serif" font-size="14.00" fill="#101010">[10.00,5.00,1.00]</text>
<text text-anchor="middle" x="662.5" y="-736.8" font-family="Times,serif" font-size="14.00" fill="#101010">SA: 16.00</text>
<text text-anchor="middle" x="662.5" y="-721.8" font-family="Times,serif" font-size="14.00" fill="#101010">VOL: 4.00</text>
</g>
<!-- NODE1&#45;&gt;NODE4 -->
<g id="edge4" class="edge">
<title>NODE1&#45;&gt;NODE4</title>
<path fill="none" stroke="black" d="M608.81,-825.35C616.58,-814.31 625.32,-801.87 633.47,-790.29"/>
<polygon fill="black" stroke="black" points="636.38,-792.23 639.27,-782.04 630.65,-788.2 636.38,-792.23"/>
</g>
<!-- NODE5 -->
<g id="node6" class="node">
<title>NODE5</title>
<path fill="lightgrey" stroke="transparent" d="M415,-670.5C415,-670.5 308,-670.5 308,-670.5 302,-670.5 296,-664.5 296,-658.5 296,-658.5 296,-614.5 296,-614.5 296,-608.5 302,-602.5 308,-602.5 308,-602.5 415,-602.5 415,-602.5 421,-602.5 427,-608.5 427,-614.5 427,-614.5 427,-658.5 427,-658.5 427,-664.5 421,-670.5 415,-670.5"/>
<text text-anchor="middle" x="361.5" y="-655.3" font-family="Times,serif" font-size="14.00" fill="#101010">[6.00,1.00,0.00]</text>
<text text-anchor="middle" x="361.5" y="-640.3" font-family="Times,serif" font-size="14.00" fill="#101010">[7.00,7.00,1.00]</text>
<text text-anchor="middle" x="361.5" y="-625.3" font-family="Times,serif" font-size="14.00" fill="#101010">SA: 26.00</text>
<text text-anchor="middle" x="361.5" y="-610.3" font-family="Times,serif" font-size="14.00" fill="#101010">VOL: 6.00</text>
</g>
<!-- NODE3&#45;&gt;NODE5 -->
<g id="edge5" class="edge">
<title>NODE3&#45;&gt;NODE5</title>
<path fill="none" stroke="black" d="M464,-713.85C448.31,-702.16 430.52,-688.91 414.22,-676.77"/>
<polygon fill="black" stroke="black" points="415.96,-673.71 405.85,-670.54 411.78,-679.32 415.96,-673.71"/>
</g>
<!-- NODE6 -->
<g id="node7" class="node">
<title>NODE6</title>
<path fill="lightgrey" stroke="transparent" d="M564,-678C564,-678 457,-678 457,-678 451,-678 445,-672 445,-666 445,-666 445,-607 445,-607 445,-601 451,-595 457,-595 457,-595 564,-595 564,-595 570,-595 576,-601 576,-607 576,-607 576,-666 576,-666 576,-672 570,-678 564,-678"/>
<text text-anchor="middle" x="510.5" y="-662.8" font-family="Times,serif" font-size="14.00" fill="#101010">[4.00,1.00,0.00]</text>
<text text-anchor="middle" x="510.5" y="-647.8" font-family="Times,serif" font-size="14.00" fill="#101010">[6.00,7.00,1.00]</text>
<text text-anchor="middle" x="510.5" y="-632.8" font-family="Times,serif" font-size="14.00" fill="#101010">SA: 40.00</text>
<text text-anchor="middle" x="510.5" y="-617.8" font-family="Times,serif" font-size="14.00" fill="#101010">VOL: 12.00</text>
<text text-anchor="middle" x="510.5" y="-602.8" font-family="Times,serif" font-size="14.00" fill="#101010">1 objects</text>
</g>
<!-- NODE3&#45;&gt;NODE6 -->
<g id="edge6" class="edge">
<title>NODE3&#45;&gt;NODE6</title>
<path fill="none" stroke="black" d="M509.11,-713.85C509.25,-705.8 509.41,-697 509.57,-688.34"/>
<polygon fill="black" stroke="black" points="513.07,-688.34 509.76,-678.28 506.07,-688.21 513.07,-688.34"/>
</g>
<!-- NODE7 -->
<g id="node8" class="node">
<title>NODE7</title>
<path fill="lightgrey" stroke="transparent" d="M715,-678C715,-678 608,-678 608,-678 602,-678 596,-672 596,-666 596,-666 596,-607 596,-607 596,-601 602,-595 608,-595 608,-595 715,-595 715,-595 721,-595 727,-601 727,-607 727,-607 727,-666 727,-666 727,-672 721,-678 715,-678"/>
<text text-anchor="middle" x="661.5" y="-662.8" font-family="Times,serif" font-size="14.00" fill="#101010">[8.00,3.00,0.00]</text>
<text text-anchor="middle" x="661.5" y="-647.8" font-family="Times,serif" font-size="14.00" fill="#101010">[9.00,5.00,1.00]</text>
<text text-anchor="middle" x="661.5" y="-632.8" font-family="Times,serif" font-size="14.00" fill="#101010">SA: 10.00</text>
<text text-anchor="middle" x="661.5" y="-617.8" font-family="Times,serif" font-size="14.00" fill="#101010">VOL: 2.00</text>
<text text-anchor="middle" x="661.5" y="-602.8" font-family="Times,serif" font-size="14.00" fill="#101010">1 objects</text>
</g>
<!-- NODE4&#45;&gt;NODE7 -->
<g id="edge7" class="edge">
<title>NODE4&#45;&gt;NODE7</title>
<path fill="none" stroke="black" d="M662.2,-713.85C662.12,-705.8 662.04,-697 661.96,-688.34"/>
<polygon fill="black" stroke="black" points="665.46,-688.24 661.87,-678.28 658.46,-688.31 665.46,-688.24"/>
</g>
<!-- NODE8 -->
<g id="node9" class="node">
<title>NODE8</title>
<path fill="lightgrey" stroke="transparent" d="M873.5,-678C873.5,-678 757.5,-678 757.5,-678 751.5,-678 745.5,-672 745.5,-666 745.5,-666 745.5,-607 745.5,-607 745.5,-601 751.5,-595 757.5,-595 757.5,-595 873.5,-595 873.5,-595 879.5,-595 885.5,-601 885.5,-607 885.5,-607 885.5,-666 885.5,-666 885.5,-672 879.5,-678 873.5,-678"/>
<text text-anchor="middle" x="815.5" y="-662.8" font-family="Times,serif" font-size="14.00" fill="#101010">[9.00,3.00,0.00]</text>
<text text-anchor="middle" x="815.5" y="-647.8" font-family="Times,serif" font-size="14.00" fill="#101010">[10.00,5.00,1.00]</text>
<text text-anchor="middle" x="815.5" y="-632.8" font-family="Times,serif" font-size="14.00" fill="#101010">SA: 10.00</text>
<text text-anchor="middle" x="815.5" y="-617.8" font-family="Times,serif" font-size="14.00" fill="#101010">VOL: 2.00</text>
<text text-anchor="middle" x="815.5" y="-602.8" font-family="Times,serif" font-size="14.00" fill="#101010">1 objects</text>
</g>
<!-- NODE4&#45;&gt;NODE8 -->
<g id="edge8" class="edge">
<title>NODE4&#45;&gt;NODE8</title>
<path fill="none" stroke="black" d="M708.82,-713.85C721.98,-704.43 736.56,-694 750.61,-683.94"/>
<polygon fill="black" stroke="black" points="752.7,-686.75 758.8,-678.08 748.63,-681.05 752.7,-686.75"/>
</g>
<!-- NODE9 -->
<g id="node10" class="node">
<title>NODE9</title>
<path fill="lightgrey" stroke="transparent" d="M341,-551.5C341,-551.5 234,-551.5 234,-551.5 228,-551.5 222,-545.5 222,-539.5 222,-539.5 222,-495.5 222,-495.5 222,-489.5 228,-483.5 234,-483.5 234,-483.5 341,-483.5 341,-483.5 347,-483.5 353,-489.5 353,-495.5 353,-495.5 353,-539.5 353,-539.5 353,-545.5 347,-551.5 341,-551.5"/>
<text text-anchor="middle" x="287.5" y="-536.3" font-family="Times,serif" font-size="14.00" fill="#101010">[6.00,1.00,0.00]</text>
<text text-anchor="middle" x="287.5" y="-521.3" font-family="Times,serif" font-size="14.00" fill="#101010">[7.00,6.00,1.00]</text>
<text text-anchor="middle" x="287.5" y="-506.3" font-family="Times,serif" font-size="14.00" fill="#101010">SA: 22.00</text>
<text text-anchor="middle" x="287.5" y="-491.3" font-family="Times,serif" font-size="14.00" fill="#101010">VOL: 5.00</text>
</g>
<!-- NODE5&#45;&gt;NODE9 -->
<g id="edge9" class="edge">
<title>NODE5&#45;&gt;NODE9</title>
<path fill="none" stroke="black" d="M340.49,-602.29C332.29,-589.32 322.79,-574.3 314.12,-560.58"/>
<polygon fill="black" stroke="black" points="316.86,-558.38 308.56,-551.8 310.95,-562.12 316.86,-558.38"/>
</g>
<!-- NODE10 -->
<g id="node11" class="node">
<title>NODE10</title>
<path fill="lightgrey" stroke="transparent" d="M490,-559C490,-559 383,-559 383,-559 377,-559 371,-553 371,-547 371,-547 371,-488 371,-488 371,-482 377,-476 383,-476 383,-476 490,-476 490,-476 496,-476 502,-482 502,-488 502,-488 502,-547 502,-547 502,-553 496,-559 490,-559"/>
<text text-anchor="middle" x="436.5" y="-543.8" font-family="Times,serif" font-size="14.00" fill="#101010">[6.00,6.00,0.00]</text>
<text text-anchor="middle" x="436.5" y="-528.8" font-family="Times,serif" font-size="14.00" fill="#101010">[7.00,7.00,1.00]</text>
<text text-anchor="middle" x="436.5" y="-513.8" font-family="Times,serif" font-size="14.00" fill="#101010">SA: 6.00</text>
<text text-anchor="middle" x="436.5" y="-498.8" font-family="Times,serif" font-size="14.00" fill="#101010">VOL: 1.00</text>
<text text-anchor="middle" x="436.5" y="-483.8" font-family="Times,serif" font-size="14.00" fill="#101010">1 objects</text>
</g>
<!-- NODE5&#45;&gt;NODE10 -->
<g id="edge10" class="edge">
<title>NODE5&#45;&gt;NODE10</title>
<path fill="none" stroke="black" d="M382.79,-602.29C389.62,-591.63 397.35,-579.58 404.76,-568.01"/>
<polygon fill="black" stroke="black" points="407.9,-569.6 410.35,-559.29 402.01,-565.82 407.9,-569.6"/>
</g>
<!-- NODE11 -->
<g id="node12" class="node">
<title>NODE11</title>
<path fill="lightgrey" stroke="transparent" d="M267,-432.5C267,-432.5 160,-432.5 160,-432.5 154,-432.5 148,-426.5 148,-420.5 148,-420.5 148,-376.5 148,-376.5 148,-370.5 154,-364.5 160,-364.5 160,-364.5 267,-364.5 267,-364.5 273,-364.5 279,-370.5 279,-376.5 279,-376.5 279,-420.5 279,-420.5 279,-426.5 273,-432.5 267,-432.5"/>
<text text-anchor="middle" x="213.5" y="-417.3" font-family="Times,serif" font-size="14.00" fill="#101010">[6.00,2.00,0.00]</text>
<text text-anchor="middle" x="213.5" y="-402.3" font-family="Times,serif" font-size="14.00" fill="#101010">[7.00,6.00,1.00]</text>
<text text-anchor="middle" x="213.5" y="-387.3" font-family="Times,serif" font-size="14.00" fill="#101010">SA: 18.00</text>
<text text-anchor="middle" x="213.5" y="-372.3" font-family="Times,serif" font-size="14.00" fill="#101010">VOL: 4.00</text>
</g>
<!-- NODE9&#45;&gt;NODE11 -->
<g id="edge11" class="edge">
<title>NODE9&#45;&gt;NODE11</title>
<path fill="none" stroke="black" d="M266.49,-483.29C258.29,-470.32 248.79,-455.3 240.12,-441.58"/>
<polygon fill="black" stroke="black" points="242.86,-439.38 234.56,-432.8 236.95,-443.12 242.86,-439.38"/>
</g>
<!-- NODE12 -->
<g id="node13" class="node">
<title>NODE12</title>
<path fill="lightgrey" stroke="transparent" d="M416,-440C416,-440 309,-440 309,-440 303,-440 297,-434 297,-428 297,-428 297,-369 297,-369 297,-363 303,-357 309,-357 309,-357 416,-357 416,-357 422,-357 428,-363 428,-369 428,-369 428,-428 428,-428 428,-434 422,-440 416,-440"/>
<text text-anchor="middle" x="362.5" y="-424.8" font-family="Times,serif" font-size="14.00" fill="#101010">[6.00,1.00,0.00]</text>
<text text-anchor="middle" x="362.5" y="-409.8" font-family="Times,serif" font-size="14.00" fill="#101010">[7.00,2.00,1.00]</text>
<text text-anchor="middle" x="362.5" y="-394.8" font-family="Times,serif" font-size="14.00" fill="#101010">SA: 6.00</text>
<text text-anchor="middle" x="362.5" y="-379.8" font-family="Times,serif" font-size="14.00" fill="#101010">VOL: 1.00</text>
<text text-anchor="middle" x="362.5" y="-364.8" font-family="Times,serif" font-size="14.00" fill="#101010">1 objects</text>
</g>
<!-- NODE9&#45;&gt;NODE12 -->
<g id="edge12" class="edge">
<title>NODE9&#45;&gt;NODE12</title>
<path fill="none" stroke="black" d="M308.79,-483.29C315.62,-472.63 323.35,-460.58 330.76,-449.01"/>
<polygon fill="black" stroke="black" points="333.9,-450.6 336.35,-440.29 328.01,-446.82 333.9,-450.6"/>
</g>
<!-- NODE13 -->
<g id="node14" class="node">
<title>NODE13</title>
<path fill="lightgrey" stroke="transparent" d="M193,-313.5C193,-313.5 86,-313.5 86,-313.5 80,-313.5 74,-307.5 74,-301.5 74,-301.5 74,-257.5 74,-257.5 74,-251.5 80,-245.5 86,-245.5 86,-245.5 193,-245.5 193,-245.5 199,-245.5 205,-251.5 205,-257.5 205,-257.5 205,-301.5 205,-301.5 205,-307.5 199,-313.5 193,-313.5"/>
<text text-anchor="middle" x="139.5" y="-298.3" font-family="Times,serif" font-size="14.00" fill="#101010">[6.00,3.00,0.00]</text>
<text text-anchor="middle" x="139.5" y="-283.3" font-family="Times,serif" font-size="14.00" fill="#101010">[7.00,6.00,1.00]</text>
<text text-anchor="middle" x="139.5" y="-268.3" font-family="Times,serif" font-size="14.00" fill="#101010">SA: 14.00</text>
<text text-anchor="middle" x="139.5" y="-253.3" font-family="Times,serif" font-size="14.00" fill="#101010">VOL: 3.00</text>
</g>
<!-- NODE11&#45;&gt;NODE13 -->
<g id="edge13" class="edge">
<title>NODE11&#45;&gt;NODE13</title>
<path fill="none" stroke="black" d="M192.49,-364.29C184.29,-351.32 174.79,-336.3 166.12,-322.58"/>
<polygon fill="black" stroke="black" points="168.86,-320.38 160.56,-313.8 162.95,-324.12 168.86,-320.38"/>
</g>
<!-- NODE14 -->
<g id="node15" class="node">
<title>NODE14</title>
<path fill="lightgrey" stroke="transparent" d="M342,-321C342,-321 235,-321 235,-321 229,-321 223,-315 223,-309 223,-309 223,-250 223,-250 223,-244 229,-238 235,-238 235,-238 342,-238 342,-238 348,-238 354,-244 354,-250 354,-250 354,-309 354,-309 354,-315 348,-321 342,-321"/>
<text text-anchor="middle" x="288.5" y="-305.8" font-family="Times,serif" font-size="14.00" fill="#101010">[6.00,2.00,0.00]</text>
<text text-anchor="middle" x="288.5" y="-290.8" font-family="Times,serif" font-size="14.00" fill="#101010">[7.00,3.00,1.00]</text>
<text text-anchor="middle" x="288.5" y="-275.8" font-family="Times,serif" font-size="14.00" fill="#101010">SA: 6.00</text>
<text text-anchor="middle" x="288.5" y="-260.8" font-family="Times,serif" font-size="14.00" fill="#101010">VOL: 1.00</text>
<text text-anchor="middle" x="288.5" y="-245.8" font-family="Times,serif" font-size="14.00" fill="#101010">1 objects</text>
</g>
<!-- NODE11&#45;&gt;NODE14 -->
<g id="edge14" class="edge">
<title>NODE11&#45;&gt;NODE14</title>
<path fill="none" stroke="black" d="M234.79,-364.29C241.62,-353.63 249.35,-341.58 256.76,-330.01"/>
<polygon fill="black" stroke="black" points="259.9,-331.6 262.35,-321.29 254.01,-327.82 259.9,-331.6"/>
</g>
<!-- NODE15 -->
<g id="node16" class="node">
<title>NODE15</title>
<path fill="lightgrey" stroke="transparent" d="M119,-202C119,-202 12,-202 12,-202 6,-202 0,-196 0,-190 0,-190 0,-131 0,-131 0,-125 6,-119 12,-119 12,-119 119,-119 119,-119 125,-119 131,-125 131,-131 131,-131 131,-190 131,-190 131,-196 125,-202 119,-202"/>
<text text-anchor="middle" x="65.5" y="-186.8" font-family="Times,serif" font-size="14.00" fill="#101010">[6.00,3.00,0.00]</text>
<text text-anchor="middle" x="65.5" y="-171.8" font-family="Times,serif" font-size="14.00" fill="#101010">[7.00,4.00,1.00]</text>
<text text-anchor="middle" x="65.5" y="-156.8" font-family="Times,serif" font-size="14.00" fill="#101010">SA: 6.00</text>
<text text-anchor="middle" x="65.5" y="-141.8" font-family="Times,serif" font-size="14.00" fill="#101010">VOL: 1.00</text>
<text text-anchor="middle" x="65.5" y="-126.8" font-family="Times,serif" font-size="14.00" fill="#101010">1 objects</text>
</g>
<!-- NODE13&#45;&gt;NODE15 -->
<g id="edge15" class="edge">
<title>NODE13&#45;&gt;NODE15</title>
<path fill="none" stroke="black" d="M118.49,-245.29C111.75,-234.63 104.13,-222.58 96.82,-211.01"/>
<polygon fill="black" stroke="black" points="99.6,-208.87 91.3,-202.29 93.69,-212.61 99.6,-208.87"/>
</g>
<!-- NODE16 -->
<g id="node17" class="node">
<title>NODE16</title>
<path fill="lightgrey" stroke="transparent" d="M268,-194.5C268,-194.5 161,-194.5 161,-194.5 155,-194.5 149,-188.5 149,-182.5 149,-182.5 149,-138.5 149,-138.5 149,-132.5 155,-126.5 161,-126.5 161,-126.5 268,-126.5 268,-126.5 274,-126.5 280,-132.5 280,-138.5 280,-138.5 280,-182.5 280,-182.5 280,-188.5 274,-194.5 268,-194.5"/>
<text text-anchor="middle" x="214.5" y="-179.3" font-family="Times,serif" font-size="14.00" fill="#101010">[6.00,4.00,0.00]</text>
<text text-anchor="middle" x="214.5" y="-164.3" font-family="Times,serif" font-size="14.00" fill="#101010">[7.00,6.00,1.00]</text>
<text text-anchor="middle" x="214.5" y="-149.3" font-family="Times,serif" font-size="14.00" fill="#101010">SA: 10.00</text>
<text text-anchor="middle" x="214.5" y="-134.3" font-family="Times,serif" font-size="14.00" fill="#101010">VOL: 2.00</text>
</g>
<!-- NODE13&#45;&gt;NODE16 -->
<g id="edge16" class="edge">
<title>NODE13&#45;&gt;NODE16</title>
<path fill="none" stroke="black" d="M160.79,-245.29C169.1,-232.32 178.73,-217.3 187.52,-203.58"/>
<polygon fill="black" stroke="black" points="190.71,-205.11 193.16,-194.8 184.81,-201.33 190.71,-205.11"/>
</g>
<!-- NODE17 -->
<g id="node18" class="node">
<title>NODE17</title>
<path fill="lightgrey" stroke="transparent" d="M194,-83C194,-83 87,-83 87,-83 81,-83 75,-77 75,-71 75,-71 75,-12 75,-12 75,-6 81,0 87,0 87,0 194,0 194,0 200,0 206,-6 206,-12 206,-12 206,-71 206,-71 206,-77 200,-83 194,-83"/>
<text text-anchor="middle" x="140.5" y="-67.8" font-family="Times,serif" font-size="14.00" fill="#101010">[6.00,5.00,0.00]</text>
<text text-anchor="middle" x="140.5" y="-52.8" font-family="Times,serif" font-size="14.00" fill="#101010">[7.00,6.00,1.00]</text>
<text text-anchor="middle" x="140.5" y="-37.8" font-family="Times,serif" font-size="14.00" fill="#101010">SA: 6.00</text>
<text text-anchor="middle" x="140.5" y="-22.8" font-family="Times,serif" font-size="14.00" fill="#101010">VOL: 1.00</text>
<text text-anchor="middle" x="140.5" y="-7.8" font-family="Times,serif" font-size="14.00" fill="#101010">1 objects</text>
</g>
<!-- NODE16&#45;&gt;NODE17 -->
<g id="edge17" class="edge">
<title>NODE16&#45;&gt;NODE17</title>
<path fill="none" stroke="black" d="M193.49,-126.29C186.75,-115.63 179.13,-103.58 171.82,-92.01"/>
<polygon fill="black" stroke="black" points="174.6,-89.87 166.3,-83.29 168.69,-93.61 174.6,-89.87"/>
</g>
<!-- NODE18 -->
<g id="node19" class="node">
<title>NODE18</title>
<path fill="lightgrey" stroke="transparent" d="M343,-83C343,-83 236,-83 236,-83 230,-83 224,-77 224,-71 224,-71 224,-12 224,-12 224,-6 230,0 236,0 236,0 343,0 343,0 349,0 355,-6 355,-12 355,-12 355,-71 355,-71 355,-77 349,-83 343,-83"/>
<text text-anchor="middle" x="289.5" y="-67.8" font-family="Times,serif" font-size="14.00" fill="#101010">[6.00,4.00,0.00]</text>
<text text-anchor="middle" x="289.5" y="-52.8" font-family="Times,serif" font-size="14.00" fill="#101010">[7.00,5.00,1.00]</text>
<text text-anchor="middle" x="289.5" y="-37.8" font-family="Times,serif" font-size="14.00" fill="#101010">SA: 6.00</text>
<text text-anchor="middle" x="289.5" y="-22.8" font-family="Times,serif" font-size="14.00" fill="#101010">VOL: 1.00</text>
<text text-anchor="middle" x="289.5" y="-7.8" font-family="Times,serif" font-size="14.00" fill="#101010">1 objects</text>
</g>
<!-- NODE16&#45;&gt;NODE18 -->
<g id="edge18" class="edge">
<title>NODE16&#45;&gt;NODE18</title>
<path fill="none" stroke="black" d="M235.79,-126.29C242.62,-115.63 250.35,-103.58 257.76,-92.01"/>
<polygon fill="black" stroke="black" points="260.9,-93.6 263.35,-83.29 255.01,-89.82 260.9,-93.6"/>
</g>
</g>
</svg>
