<?xml version="1.0" encoding="UTF-8" standalone="no"?>
<!DOCTYPE svg PUBLIC "-//W3C//DTD SVG 1.1//EN"
 "http://www.w3.org/Graphics/SVG/1.1/DTD/svg11.dtd">
<!-- Generated by graphviz version 2.43.0 (0)
 -->
<!-- Title: bvh Pages: 1 -->
<svg width="745pt" height="775pt"
 viewBox="0.00 0.00 745.00 775.00" xmlns="http://www.w3.org/2000/svg" xmlns:xlink="http://www.w3.org/1999/xlink">
<g id="graph0" class="graph" transform="scale(1 1) rotate(0) translate(4 771)">
<title>bvh</title>
<polygon fill="white" stroke="transparent" points="-4,4 -4,-771 741,-771 741,4 -4,4"/>
<!-- NODE0 -->
<g id="node1" class="node">
<title>NODE0</title>
<path fill="lightgrey" stroke="transparent" d="M652.5,-767C652.5,-767 536.5,-767 536.5,-767 530.5,-767 524.5,-761 524.5,-755 524.5,-755 524.5,-711 524.5,-711 524.5,-705 530.5,-699 536.5,-699 536.5,-699 652.5,-699 652.5,-699 658.5,-699 664.5,-705 664.5,-711 664.5,-711 664.5,-755 664.5,-755 664.5,-761 658.5,-767 652.5,-767"/>
<text text-anchor="middle" x="594.5" y="-751.8" font-family="Times,serif" font-size="14.00" fill="#101010">[1.00,1.00,0.00]</text>
<text text-anchor="middle" x="594.5" y="-736.8" font-family="Times,serif" font-size="14.00" fill="#101010">[10.00,7.00,1.00]</text>
<text text-anchor="middle" x="594.5" y="-721.8" font-family="Times,serif" font-size="14.00" fill="#101010">SA: 138.00</text>
<text text-anchor="middle" x="594.5" y="-706.8" font-family="Times,serif" font-size="14.00" fill="#101010">VOL: 54.00</text>
</g>
<!-- NODE1 -->
<g id="node2" class="node">
<title>NODE1</title>
<path fill="lightgrey" stroke="transparent" d="M575.5,-655.5C575.5,-655.5 459.5,-655.5 459.5,-655.5 453.5,-655.5 447.5,-649.5 447.5,-643.5 447.5,-643.5 447.5,-599.5 447.5,-599.5 447.5,-593.5 453.5,-587.5 459.5,-587.5 459.5,-587.5 575.5,-587.5 575.5,-587.5 581.5,-587.5 587.5,-593.5 587.5,-599.5 587.5,-599.5 587.5,-643.5 587.5,-643.5 587.5,-649.5 581.5,-655.5 575.5,-655.5"/>
<text text-anchor="middle" x="517.5" y="-640.3" font-family="Times,serif" font-size="14.00" fill="#101010">[4.00,1.00,0.00]</text>
<text text-anchor="middle" x="517.5" y="-625.3" font-family="Times,serif" font-size="14.00" fill="#101010">[10.00,7.00,1.00]</text>
<text text-anchor="middle" x="517.5" y="-610.3" font-family="Times,serif" font-size="14.00" fill="#101010">SA: 96.00</text>
<text text-anchor="middle" x="517.5" y="-595.3" font-family="Times,serif" font-size="14.00" fill="#101010">VOL: 36.00</text>
</g>
<!-- NODE0&#45;&gt;NODE1 -->
<g id="edge1" class="edge">
<title>NODE0&#45;&gt;NODE1</title>
<path fill="none" stroke="black" d="M571.19,-698.85C563.42,-687.81 554.68,-675.37 546.53,-663.79"/>
<polygon fill="black" stroke="black" points="549.35,-661.7 540.73,-655.54 543.62,-665.73 549.35,-661.7"/>
</g>
<!-- NODE2 -->
<g id="node3" class="node">
<title>NODE2</title>
<path fill="lightgrey" stroke="transparent" d="M725,-663C725,-663 618,-663 618,-663 612,-663 606,-657 606,-651 606,-651 606,-592 606,-592 606,-586 612,-580 618,-580 618,-580 725,-580 725,-580 731,-580 737,-586 737,-592 737,-592 737,-651 737,-651 737,-657 731,-663 725,-663"/>
<text text-anchor="middle" x="671.5" y="-647.8" font-family="Times,serif" font-size="14.00" fill="#101010">[1.00,3.00,0.00]</text>
<text text-anchor="middle" x="671.5" y="-632.8" font-family="Times,serif" font-size="14.00" fill="#101010">[3.00,5.00,1.00]</text>
<text text-anchor="middle" x="671.5" y="-617.8" font-family="Times,serif" font-size="14.00" fill="#101010">SA: 16.00</text>
<text text-anchor="middle" x="671.5" y="-602.8" font-family="Times,serif" font-size="14.00" fill="#101010">VOL: 4.00</text>
<text text-anchor="middle" x="671.5" y="-587.8" font-family="Times,serif" font-size="14.00" fill="#101010">1 objects</text>
</g>
<!-- NODE0&#45;&gt;NODE2 -->
<g id="edge2" class="edge">
<title>NODE0&#45;&gt;NODE2</title>
<path fill="none" stroke="black" d="M617.81,-698.85C623.84,-690.27 630.47,-680.85 636.94,-671.64"/>
<polygon fill="black" stroke="black" points="639.94,-673.47 642.83,-663.28 634.21,-669.44 639.94,-673.47"/>
</g>
<!-- NODE3 -->
<g id="node4" class="node">
<title>NODE3</title>
<path fill="lightgrey" stroke="transparent" d="M498.5,-536.5C498.5,-536.5 382.5,-536.5 382.5,-536.5 376.5,-536.5 370.5,-530.5 370.5,-524.5 370.5,-524.5 370.5,-480.5 370.5,-480.5 370.5,-474.5 376.5,-468.5 382.5,-468.5 382.5,-468.5 498.5,-468.5 498.5,-468.5 504.5,-468.5 510.5,-474.5 510.5,-480.5 510.5,-480.5 510.5,-524.5 510.5,-524.5 510.5,-530.5 504.5,-536.5 498.5,-536.5"/>
<text text-anchor="middle" x="440.5" y="-521.3" font-family="Times,serif" font-size="14.00" fill="#101010">[6.00,1.00,0.00]</text>
<text text-anchor="middle" x="440.5" y="-506.3" font-family="Times,serif" font-size="14.00" fill="#101010">[10.00,7.00,1.00]</text>
<text text-anchor="middle" x="440.5" y="-491.3" font-family="Times,serif" font-size="14.00" fill="#101010">SA: 68.00</text>
<text text-anchor="middle" x="440.5" y="-476.3" font-family="Times,serif" font-size="14.00" fill="#101010">VOL: 24.00</text>
</g>
<!-- NODE1&#45;&gt;NODE3 -->
<g id="edge3" class="edge">
<title>NODE1&#45;&gt;NODE3</title>
<path fill="none" stroke="black" d="M495.64,-587.29C487.02,-574.19 477.03,-559.01 467.94,-545.19"/>
<polygon fill="black" stroke="black" points="470.83,-543.23 462.41,-536.8 464.99,-547.08 470.83,-543.23"/>
</g>
<!-- NODE4 -->
<g id="node5" class="node">
<title>NODE4</title>
<path fill="lightgrey" stroke="transparent" d="M648,-544C648,-544 541,-544 541,-544 535,-544 529,-538 529,-532 529,-532 529,-473 529,-473 529,-467 535,-461 541,-461 541,-461 648,-461 648,-461 654,-461 660,-467 660,-473 660,-473 660,-532 660,-532 660,-538 654,-544 648,-544"/>
<text text-anchor="middle" x="594.5" y="-528.8" font-family="Times,serif" font-size="14.00" fill="#101010">[4.00,1.00,0.00]</text>
<text text-anchor="middle" x="594.5" y="-513.8" font-family="Times,serif" font-size="14.00" fill="#101010">[6.00,7.00,1.00]</text>
<text text-anchor="middle" x="594.5" y="-498.8" font-family="Times,serif" font-size="14.00" fill="#101010">SA: 40.00</text>
<text text-anchor="middle" x="594.5" y="-483.8" font-family="Times,serif" font-size="14.00" fill="#101010">VOL: 12.00</text>
<text text-anchor="middle" x="594.5" y="-468.8" font-family="Times,serif" font-size="14.00" fill="#101010">1 objects</text>
</g>
<!-- NODE1&#45;&gt;NODE4 -->
<g id="edge4" class="edge">
<title>NODE1&#45;&gt;NODE4</title>
<path fill="none" stroke="black" d="M539.36,-587.29C546.44,-576.52 554.46,-564.34 562.14,-552.67"/>
<polygon fill="black" stroke="black" points="565.08,-554.57 567.65,-544.29 559.23,-550.72 565.08,-554.57"/>
</g>
<!-- NODE5 -->
<g id="node6" class="node">
<title>NODE5</title>
<path fill="lightgrey" stroke="transparent" d="M417,-425C417,-425 310,-425 310,-425 304,-425 298,-419 298,-413 298,-413 298,-369 298,-369 298,-363 304,-357 310,-357 310,-357 417,-357 417,-357 423,-357 429,-363 429,-369 429,-369 429,-413 429,-413 429,-419 423,-425 417,-425"/>
<text text-anchor="middle" x="363.5" y="-409.8" font-family="Times,serif" font-size="14.00" fill="#101010">[6.00,1.00,0.00]</text>
<text text-anchor="middle" x="363.5" y="-394.8" font-family="Times,serif" font-size="14.00" fill="#101010">[7.00,7.00,1.00]</text>
<text text-anchor="middle" x="363.5" y="-379.8" font-family="Times,serif" font-size="14.00" fill="#101010">SA: 26.00</text>
<text text-anchor="middle" x="363.5" y="-364.8" font-family="Times,serif" font-size="14.00" fill="#101010">VOL: 6.00</text>
</g>
<!-- NODE3&#45;&gt;NODE5 -->
<g id="edge5" class="edge">
<title>NODE3&#45;&gt;NODE5</title>
<path fill="none" stroke="black" d="M417.19,-468.35C409.42,-457.31 400.68,-444.87 392.53,-433.29"/>
<polygon fill="black" stroke="black" points="395.35,-431.2 386.73,-425.04 389.62,-435.23 395.35,-431.2"/>
</g>
<!-- NODE6 -->
<g id="node7" class="node">
<title>NODE6</title>
<path fill="lightgrey" stroke="transparent" d="M575.5,-425C575.5,-425 459.5,-425 459.5,-425 453.5,-425 447.5,-419 447.5,-413 447.5,-413 447.5,-369 447.5,-369 447.5,-363 453.5,-357 459.5,-357 459.5,-357 575.5,-357 575.5,-357 581.5,-357 587.5,-363 587.5,-369 587.5,-369 587.5,-413 587.5,-413 587.5,-419 581.5,-425 575.5,-425"/>
<text text-anchor="middle" x="517.5" y="-409.8" font-family="Times,serif" font-size="14.00" fill="#101010">[8.00,3.00,0.00]</text>
<text text-anchor="middle" x="517.5" y="-394.8" font-family="Times,serif" font-size="14.00" fill="#101010">[10.00,5.00,1.00]</text>
<text text-anchor="middle" x="517.5" y="-379.8" font-family="Times,serif" font-size="14.00" fill="#101010">SA: 16.00</text>
<text text-anchor="middle" x="517.5" y="-364.8" font-family="Times,serif" font-size="14.00" fill="#101010">VOL: 4.00</text>
</g>
<!-- NODE3&#45;&gt;NODE6 -->
<g id="edge6" class="edge">
<title>NODE3&#45;&gt;NODE6</title>
<path fill="none" stroke="black" d="M463.81,-468.35C471.58,-457.31 480.32,-444.87 488.47,-433.29"/>
<polygon fill="black" stroke="black" points="491.38,-435.23 494.27,-425.04 485.65,-431.2 491.38,-435.23"/>
</g>
<!-- NODE7 -->
<g id="node8" class="node">
<title>NODE7</title>
<path fill="lightgrey" stroke="transparent" d="M268,-313.5C268,-313.5 161,-313.5 161,-313.5 155,-313.5 149,-307.5 149,-301.5 149,-301.5 149,-257.5 149,-257.5 149,-251.5 155,-245.5 161,-245.5 161,-245.5 268,-245.5 268,-245.5 274,-245.5 280,-251.5 280,-257.5 280,-257.5 280,-301.5 280,-301.5 280,-307.5 274,-313.5 268,-313.5"/>
<text text-anchor="middle" x="214.5" y="-298.3" font-family="Times,serif" font-size="14.00" fill="#101010">[6.00,1.00,0.00]</text>
<text text-anchor="middle" x="214.5" y="-283.3" font-family="Times,serif" font-size="14.00" fill="#101010">[7.00,3.00,1.00]</text>
<text text-anchor="middle" x="214.5" y="-268.3" font-family="Times,serif" font-size="14.00" fill="#101010">SA: 10.00</text>
<text text-anchor="middle" x="214.5" y="-253.3" font-family="Times,serif" font-size="14.00" fill="#101010">VOL: 2.00</text>
</g>
<!-- NODE5&#45;&gt;NODE7 -->
<g id="edge7" class="edge">
<title>NODE5&#45;&gt;NODE7</title>
<path fill="none" stroke="black" d="M318.39,-356.85C302.49,-345.16 284.46,-331.91 267.94,-319.77"/>
<polygon fill="black" stroke="black" points="269.59,-316.64 259.46,-313.54 265.44,-322.28 269.59,-316.64"/>
</g>
<!-- NODE8 -->
<g id="node9" class="node">
<title>NODE8</title>
<path fill="lightgrey" stroke="transparent" d="M417,-313.5C417,-313.5 310,-313.5 310,-313.5 304,-313.5 298,-307.5 298,-301.5 298,-301.5 298,-257.5 298,-257.5 298,-251.5 304,-245.5 310,-245.5 310,-245.5 417,-245.5 417,-245.5 423,-245.5 429,-251.5 429,-257.5 429,-257.5 429,-301.5 429,-301.5 429,-307.5 423,-313.5 417,-313.5"/>
<text text-anchor="middle" x="363.5" y="-298.3" font-family="Times,serif" font-size="14.00" fill="#101010">[6.00,3.00,0.00]</text>
<text text-anchor="middle" x="363.5" y="-283.3" font-family="Times,serif" font-size="14.00" fill="#101010">[7.00,7.00,1.00]</text>
<text text-anchor="middle" x="363.5" y="-268.3" font-family="Times,serif" font-size="14.00" fill="#101010">SA: 18.00</text>
<text text-anchor="middle" x="363.5" y="-253.3" font-family="Times,serif" font-size="14.00" fill="#101010">VOL: 4.00</text>
</g>
<!-- NODE5&#45;&gt;NODE8 -->
<g id="edge8" class="edge">
<title>NODE5&#45;&gt;NODE8</title>
<path fill="none" stroke="black" d="M363.5,-356.85C363.5,-346.45 363.5,-334.81 363.5,-323.82"/>
<polygon fill="black" stroke="black" points="367,-323.54 363.5,-313.54 360,-323.54 367,-323.54"/>
</g>
<!-- NODE9 -->
<g id="node10" class="node">
<title>NODE9</title>
<path fill="lightgrey" stroke="transparent" d="M575.5,-321C575.5,-321 459.5,-321 459.5,-321 453.5,-321 447.5,-315 447.5,-309 447.5,-309 447.5,-250 447.5,-250 447.5,-244 453.5,-238 459.5,-238 459.5,-238 575.5,-238 575.5,-238 581.5,-238 587.5,-244 587.5,-250 587.5,-250 587.5,-309 587.5,-309 587.5,-315 581.5,-321 575.5,-321"/>
<text text-anchor="middle" x="517.5" y="-305.8" font-family="Times,serif" font-size="14.00" fill="#101010">[9.00,3.00,0.00]</text>
<text text-anchor="middle" x="517.5" y="-290.8" font-family="Times,serif" font-size="14.00" fill="#101010">[10.00,5.00,1.00]</text>
<text text-anchor="middle" x="517.5" y="-275.8" font-family="Times,serif" font-size="14.00" fill="#101010">SA: 10.00</text>
<text text-anchor="middle" x="517.5" y="-260.8" font-family="Times,serif" font-size="14.00" fill="#101010">VOL: 2.00</text>
<text text-anchor="middle" x="517.5" y="-245.8" font-family="Times,serif" font-size="14.00" fill="#101010">1 objects</text>
</g>
<!-- NODE6&#45;&gt;NODE9 -->
<g id="edge9" class="edge">
<title>NODE6&#45;&gt;NODE9</title>
<path fill="none" stroke="black" d="M517.5,-356.85C517.5,-348.8 517.5,-340 517.5,-331.34"/>
<polygon fill="black" stroke="black" points="521,-331.28 517.5,-321.28 514,-331.28 521,-331.28"/>
</g>
<!-- NODE10 -->
<g id="node11" class="node">
<title>NODE10</title>
<path fill="lightgrey" stroke="transparent" d="M725,-321C725,-321 618,-321 618,-321 612,-321 606,-315 606,-309 606,-309 606,-250 606,-250 606,-244 612,-238 618,-238 618,-238 725,-238 725,-238 731,-238 737,-244 737,-250 737,-250 737,-309 737,-309 737,-315 731,-321 725,-321"/>
<text text-anchor="middle" x="671.5" y="-305.8" font-family="Times,serif" font-size="14.00" fill="#101010">[8.00,3.00,0.00]</text>
<text text-anchor="middle" x="671.5" y="-290.8" font-family="Times,serif" font-size="14.00" fill="#101010">[9.00,5.00,1.00]</text>
<text text-anchor="middle" x="671.5" y="-275.8" font-family="Times,serif" font-size="14.00" fill="#101010">SA: 10.00</text>
<text text-anchor="middle" x="671.5" y="-260.8" font-family="Times,serif" font-size="14.00" fill="#101010">VOL: 2.00</text>
<text text-anchor="middle" x="671.5" y="-245.8" font-family="Times,serif" font-size="14.00" fill="#101010">1 objects</text>
</g>
<!-- NODE6&#45;&gt;NODE10 -->
<g id="edge10" class="edge">
<title>NODE6&#45;&gt;NODE10</title>
<path fill="none" stroke="black" d="M564.12,-356.85C577.37,-347.43 592.04,-337 606.18,-326.94"/>
<polygon fill="black" stroke="black" points="608.31,-329.73 614.43,-321.08 604.25,-324.02 608.31,-329.73"/>
</g>
<!-- NODE11 -->
<g id="node12" class="node">
<title>NODE11</title>
<path fill="lightgrey" stroke="transparent" d="M119,-202C119,-202 12,-202 12,-202 6,-202 0,-196 0,-190 0,-190 0,-131 0,-131 0,-125 6,-119 12,-119 12,-119 119,-119 119,-119 125,-119 131,-125 131,-131 131,-131 131,-190 131,-190 131,-196 125,-202 119,-202"/>
<text text-anchor="middle" x="65.5" y="-186.8" font-family="Times,serif" font-size="14.00" fill="#101010">[6.00,1.00,0.00]</text>
<text text-anchor="middle" x="65.5" y="-171.8" font-family="Times,serif" font-size="14.00" fill="#101010">[7.00,2.00,1.00]</text>
<text text-anchor="middle" x="65.5" y="-156.8" font-family="Times,serif" font-size="14.00" fill="#101010">SA: 6.00</text>
<text text-anchor="middle" x="65.5" y="-141.8" font-family="Times,serif" font-size="14.00" fill="#101010">VOL: 1.00</text>
<text text-anchor="middle" x="65.5" y="-126.8" font-family="Times,serif" font-size="14.00" fill="#101010">1 objects</text>
</g>
<!-- NODE7&#45;&gt;NODE11 -->
<g id="edge11" class="edge">
<title>NODE7&#45;&gt;NODE11</title>
<path fill="none" stroke="black" d="M172.2,-245.29C157.62,-233.84 141,-220.79 125.29,-208.45"/>
<polygon fill="black" stroke="black" points="127.21,-205.5 117.18,-202.08 122.88,-211.01 127.21,-205.5"/>
</g>
<!-- NODE12 -->
<g id="node13" class="node">
<title>NODE12</title>
<path fill="lightgrey" stroke="transparent" d="M268,-202C268,-202 161,-202 161,-202 155,-202 149,-196 149,-190 149,-190 149,-131 149,-131 149,-125 155,-119 161,-119 161,-119 268,-119 268,-119 274,-119 280,-125 280,-131 280,-131 280,-190 280,-190 280,-196 274,-202 268,-202"/>
<text text-anchor="middle" x="214.5" y="-186.8" font-family="Times,serif" font-size="14.00" fill="#101010">[6.00,2.00,0.00]</text>
<text text-anchor="middle" x="214.5" y="-171.8" font-family="Times,serif" font-size="14.00" fill="#101010">[7.00,3.00,1.00]</text>
<text text-anchor="middle" x="214.5" y="-156.8" font-family="Times,serif" font-size="14.00" fill="#101010">SA: 6.00</text>
<text text-anchor="middle" x="214.5" y="-141.8" font-family="Times,serif" font-size="14.00" fill="#101010">VOL: 1.00</text>
<text text-anchor="middle" x="214.5" y="-126.8" font-family="Times,serif" font-size="14.00" fill="#101010">1 objects</text>
</g>
<!-- NODE7&#45;&gt;NODE12 -->
<g id="edge12" class="edge">
<title>NODE7&#45;&gt;NODE12</title>
<path fill="none" stroke="black" d="M214.5,-245.29C214.5,-235.04 214.5,-223.52 214.5,-212.38"/>
<polygon fill="black" stroke="black" points="218,-212.29 214.5,-202.29 211,-212.29 218,-212.29"/>
</g>
<!-- NODE13 -->
<g id="node14" class="node">
<title>NODE13</title>
<path fill="lightgrey" stroke="transparent" d="M417,-194.5C417,-194.5 310,-194.5 310,-194.5 304,-194.5 298,-188.5 298,-182.5 298,-182.5 298,-138.5 298,-138.5 298,-132.5 304,-126.5 310,-126.5 310,-126.5 417,-126.5 417,-126.5 423,-126.5 429,-132.5 429,-138.5 429,-138.5 429,-182.5 429,-182.5 429,-188.5 423,-194.5 417,-194.5"/>
<text text-anchor="middle" x="363.5" y="-179.3" font-family="Times,serif" font-size="14.00" fill="#101010">[6.00,5.00,0.00]</text>
<text text-anchor="middle" x="363.5" y="-164.3" font-family="Times,serif" font-size="14.00" fill="#101010">[7.00,7.00,1.00]</text>
<text text-anchor="middle" x="363.5" y="-149.3" font-family="Times,serif" font-size="14.00" fill="#101010">SA: 10.00</text>
<text text-anchor="middle" x="363.5" y="-134.3" font-family="Times,serif" font-size="14.00" fill="#101010">VOL: 2.00</text>
</g>
<!-- NODE8&#45;&gt;NODE13 -->
<g id="edge13" class="edge">
<title>NODE8&#45;&gt;NODE13</title>
<path fill="none" stroke="black" d="M363.5,-245.29C363.5,-232.81 363.5,-218.44 363.5,-205.16"/>
<polygon fill="black" stroke="black" points="367,-204.8 363.5,-194.8 360,-204.8 367,-204.8"/>
</g>
<!-- NODE14 -->
<g id="node15" class="node">
<title>NODE14</title>
<path fill="lightgrey" stroke="transparent" d="M566,-194.5C566,-194.5 459,-194.5 459,-194.5 453,-194.5 447,-188.5 447,-182.5 447,-182.5 447,-138.5 447,-138.5 447,-132.5 453,-126.5 459,-126.5 459,-126.5 566,-126.5 566,-126.5 572,-126.5 578,-132.5 578,-138.5 578,-138.5 578,-182.5 578,-182.5 578,-188.5 572,-194.5 566,-194.5"/>
<text text-anchor="middle" x="512.5" y="-179.3" font-family="Times,serif" font-size="14.00" fill="#101010">[6.00,3.00,0.00]</text>
<text text-anchor="middle" x="512.5" y="-164.3" font-family="Times,serif" font-size="14.00" fill="#101010">[7.00,5.00,1.00]</text>
<text text-anchor="middle" x="512.5" y="-149.3" font-family="Times,serif" font-size="14.00" fill="#101010">SA: 10.00</text>
<text text-anchor="middle" x="512.5" y="-134.3" font-family="Times,serif" font-size="14.00" fill="#101010">VOL: 2.00</text>
</g>
<!-- NODE8&#45;&gt;NODE14 -->
<g id="edge14" class="edge">
<title>NODE8&#45;&gt;NODE14</title>
<path fill="none" stroke="black" d="M405.8,-245.29C423.33,-231.52 443.81,-215.44 462.12,-201.06"/>
<polygon fill="black" stroke="black" points="464.65,-203.52 470.35,-194.59 460.33,-198.02 464.65,-203.52"/>
</g>
<!-- NODE15 -->
<g id="node16" class="node">
<title>NODE15</title>
<path fill="lightgrey" stroke="transparent" d="M268,-83C268,-83 161,-83 161,-83 155,-83 149,-77 149,-71 149,-71 149,-12 149,-12 149,-6 155,0 161,0 161,0 268,0 268,0 274,0 280,-6 280,-12 280,-12 280,-71 280,-71 280,-77 274,-83 268,-83"/>
<text text-anchor="middle" x="214.5" y="-67.8" font-family="Times,serif" font-size="14.00" fill="#101010">[6.00,5.00,0.00]</text>
<text text-anchor="middle" x="214.5" y="-52.8" font-family="Times,serif" font-size="14.00" fill="#101010">[7.00,6.00,1.00]</text>
<text text-anchor="middle" x="214.5" y="-37.8" font-family="Times,serif" font-size="14.00" fill="#101010">SA: 6.00</text>
<text text-anchor="middle" x="214.5" y="-22.8" font-family="Times,serif" font-size="14.00" fill="#101010">VOL: 1.00</text>
<text text-anchor="middle" x="214.5" y="-7.8" font-family="Times,serif" font-size="14.00" fill="#101010">1 objects</text>
</g>
<!-- NODE13&#45;&gt;NODE15 -->
<g id="edge15" class="edge">
<title>NODE13&#45;&gt;NODE15</title>
<path fill="none" stroke="black" d="M321.2,-126.29C306.62,-114.84 290,-101.79 274.29,-89.45"/>
<polygon fill="black" stroke="black" points="276.21,-86.5 266.18,-83.08 271.88,-92.01 276.21,-86.5"/>
</g>
<!-- NODE16 -->
<g id="node17" class="node">
<title>NODE16</title>
<path fill="lightgrey" stroke="transparent" d="M417,-83C417,-83 310,-83 310,-83 304,-83 298,-77 298,-71 298,-71 298,-12 298,-12 298,-6 304,0 310,0 310,0 417,0 417,0 423,0 429,-6 429,-12 429,-12 429,-71 429,-71 429,-77 423,-83 417,-83"/>
<text text-anchor="middle" x="363.5" y="-67.8" font-family="Times,serif" font-size="14.00" fill="#101010">[6.00,6.00,0.00]</text>
<text text-anchor="middle" x="363.5" y="-52.8" font-family="Times,serif" font-size="14.00" fill="#101010">[7.00,7.00,1.00]</text>
<text text-anchor="middle" x="363.5" y="-37.8" font-family="Times,serif" font-size="14.00" fill="#101010">SA: 6.00</text>
<text text-anchor="middle" x="363.5" y="-22.8" font-family="Times,serif" font-size="14.00" fill="#101010">VOL: 1.00</text>
<text text-anchor="middle" x="363.5" y="-7.8" font-family="Times,serif" font-size="14.00" fill="#101010">1 objects</text>
</g>
<!-- NODE13&#45;&gt;NODE16 -->
<g id="edge16" class="edge">
<title>NODE13&#45;&gt;NODE16</title>
<path fill="none" stroke="black" d="M363.5,-126.29C363.5,-116.04 363.5,-104.52 363.5,-93.38"/>
<polygon fill="black" stroke="black" points="367,-93.29 363.5,-83.29 360,-93.29 367,-93.29"/>
</g>
<!-- NODE17 -->
<g id="node18" class="node">
<title>NODE17</title>
<path fill="lightgrey" stroke="transparent" d="M566,-83C566,-83 459,-83 459,-83 453,-83 447,-77 447,-71 447,-71 447,-12 447,-12 447,-6 453,0 459,0 459,0 566,0 566,0 572,0 578,-6 578,-12 578,-12 578,-71 578,-71 578,-77 572,-83 566,-83"/>
<text text-anchor="middle" x="512.5" y="-67.8" font-family="Times,serif" font-size="14.00" fill="#101010">[6.00,3.00,0.00]</text>
<text text-anchor="middle" x="512.5" y="-52.8" font-family="Times,serif" font-size="14.00" fill="#101010">[7.00,4.00,1.00]</text>
<text text-anchor="middle" x="512.5" y="-37.8" font-family="Times,serif" font-size="14.00" fill="#101010">SA: 6.00</text>
<text text-anchor="middle" x="512.5" y="-22.8" font-family="Times,serif" font-size="14.00" fill="#101010">VOL: 1.00</text>
<text text-anchor="middle" x="512.5" y="-7.8" font-family="Times,serif" font-size="14.00" fill="#101010">1 objects</text>
</g>
<!-- NODE14&#45;&gt;NODE17 -->
<g id="edge17" class="edge">
<title>NODE14&#45;&gt;NODE17</title>
<path fill="none" stroke="black" d="M512.5,-126.29C512.5,-116.04 512.5,-104.52 512.5,-93.38"/>
<polygon fill="black" stroke="black" points="516,-93.29 512.5,-83.29 509,-93.29 516,-93.29"/>
</g>
<!-- NODE18 -->
<g id="node19" class="node">
<title>NODE18</title>
<path fill="lightgrey" stroke="transparent" d="M715,-83C715,-83 608,-83 608,-83 602,-83 596,-77 596,-71 596,-71 596,-12 596,-12 596,-6 602,0 608,0 608,0 715,0 715,0 721,0 727,-6 727,-12 727,-12 727,-71 727,-71 727,-77 721,-83 715,-83"/>
<text text-anchor="middle" x="661.5" y="-67.8" font-family="Times,serif" font-size="14.00" fill="#101010">[6.00,4.00,0.00]</text>
<text text-anchor="middle" x="661.5" y="-52.8" font-family="Times,serif" font-size="14.00" fill="#101010">[7.00,5.00,1.00]</text>
<text text-anchor="middle" x="661.5" y="-37.8" font-family="Times,serif" font-size="14.00" fill="#101010">SA: 6.00</text>
<text text-anchor="middle" x="661.5" y="-22.8" font-family="Times,serif" font-size="14.00" fill="#101010">VOL: 1.00</text>
<text text-anchor="middle" x="661.5" y="-7.8" font-family="Times,serif" font-size="14.00" fill="#101010">1 objects</text>
</g>
<!-- NODE14&#45;&gt;NODE18 -->
<g id="edge18" class="edge">
<title>NODE14&#45;&gt;NODE18</title>
<path fill="none" stroke="black" d="M554.8,-126.29C569.38,-114.84 586,-101.79 601.71,-89.45"/>
<polygon fill="black" stroke="black" points="604.12,-92.01 609.82,-83.08 599.79,-86.5 604.12,-92.01"/>
</g>
</g>
</svg>
