<?xml version="1.0" encoding="UTF-8" standalone="no"?>
<!DOCTYPE svg PUBLIC "-//W3C//DTD SVG 1.1//EN"
 "http://www.w3.org/Graphics/SVG/1.1/DTD/svg11.dtd">
<!-- Generated by graphviz version 2.43.0 (0)
 -->
<!-- Title: bvh Pages: 1 -->
<svg width="139pt" height="91pt"
 viewBox="0.00 0.00 139.00 91.00" xmlns="http://www.w3.org/2000/svg" xmlns:xlink="http://www.w3.org/1999/xlink">
<g id="graph0" class="graph" transform="scale(1 1) rotate(0) translate(4 87)">
<title>bvh</title>
<polygon fill="white" stroke="transparent" points="-4,4 -4,-87 135,-87 135,4 -4,4"/>
<!-- NODE0 -->
<g id="node1" class="node">
<title>NODE0</title>
<path fill="lightgrey" stroke="transparent" d="M119,-83C119,-83 12,-83 12,-83 6,-83 0,-77 0,-71 0,-71 0,-12 0,-12 0,-6 6,0 12,0 12,0 119,0 119,0 125,0 131,-6 131,-12 131,-12 131,-71 131,-71 131,-77 125,-83 119,-83"/>
<text text-anchor="middle" x="65.5" y="-67.8" font-family="Times,serif" font-size="14.00" fill="#101010">[0.00,0.00,0.00]</text>
<text text-anchor="middle" x="65.5" y="-52.8" font-family="Times,serif" font-size="14.00" fill="#101010">[1.00,1.00,1.00]</text>
<text text-anchor="middle" x="65.5" y="-37.8" font-family="Times,serif" font-size="14.00" fill="#101010">SA: 6.00</text>
<text text-anchor="middle" x="65.5" y="-22.8" font-family="Times,serif" font-size="14.00" fill="#101010">VOL: 1.00</text>
<text text-anchor="middle" x="65.5" y="-7.8" font-family="Times,serif" font-size="14.00" fill="#101010">1 objects</text>
</g>
</g>
</svg>
